<?xml version="1.0" encoding="utf-8"?>
<!-- Generator: Adobe Illustrator 16.0.0, SVG Export Plug-In . SVG Version: 6.00 Build 0)  -->
<!DOCTYPE svg PUBLIC "-//W3C//DTD SVG 1.1//EN" "http://www.w3.org/Graphics/SVG/1.1/DTD/svg11.dtd">
<svg version="1.1"
	 id="svg2" xmlns:sodipodi="http://sodipodi.sourceforge.net/DTD/sodipodi-0.dtd" xmlns:rdf="http://www.w3.org/1999/02/22-rdf-syntax-ns#" xmlns:inkscape="http://www.inkscape.org/namespaces/inkscape" xmlns:svg="http://www.w3.org/2000/svg" xmlns:cc="http://creativecommons.org/ns#" xmlns:dc="http://purl.org/dc/elements/1.1/" sodipodi:docname="logo.svg" inkscape:version="0.48.4 r9939"
	 xmlns="http://www.w3.org/2000/svg" xmlns:xlink="http://www.w3.org/1999/xlink" x="0px" y="0px" width="744.094px"
	 height="1052.363px" viewBox="0 0 744.094 1052.363" enable-background="new 0 0 744.094 1052.363" xml:space="preserve">
<linearGradient id="path4727_1_" gradientUnits="userSpaceOnUse" x1="-1283.1064" y1="41.0981" x2="-585.9636" y2="-507.4735" gradientTransform="matrix(0.6548 0 0 0.6548 988.1697 550.0468)">
	<stop  offset="0" style="stop-color:#6F156C"/>
	<stop  offset="1" style="stop-color:#432B54"/>
</linearGradient>
<path id="path4727" inkscape:connector-curvature="0" fill="url(#path4727_1_)" d="M376.235,112.978
	c-157.061,0-284.378,127.319-284.378,284.378s127.319,284.378,284.378,284.378c157.059,0,284.377-127.318,284.377-284.378
	c0-26.062-3.502-51.306-10.068-75.284l-0.184,0.368L451.151,123.23c0,0,0.118-0.24,0.123-0.246
	C427.366,116.46,402.21,112.978,376.235,112.978z"/>
<g id="path4733" inkscape:connector-curvature="0" sodipodi:nodetypes="ccc">
	
		<image overflow="visible" opacity="0.41" enable-background="new    " width="179" height="217" xlink:href="A9CC5BDCE8FB23DD.png"  transform="matrix(0.8662 0 0 0.8662 -7963.5229 -7889.9785)">
	</image>
	<g>
	</g>
</g>
<path id="path4737" inkscape:connector-curvature="0" sodipodi:nodetypes="ccccccc" fill="#FFFFFF" d="M286.299,185.924
	l0.167,316.177c0.885,95.171,69.802,91.845,104.703,137.767l-0.268-360.648c0-23.627-2.545-24.312-7.968-29.734l-74.104-63.561
	C299.064,178.135,286.299,165.981,286.299,185.924z"/>
<path id="path4739" inkscape:connector-curvature="0" sodipodi:nodetypes="sssssssssss" fill="#FFFFFF" d="M439.997,358.217
	c-17.389,0-34.104,2.89-49.691,8.214c-60.461,20.655-103.938,77.958-103.938,145.416c0,84.849,68.782,153.631,153.629,153.631
	c84.848,0,153.631-68.782,153.631-153.631C593.628,426.999,524.844,358.217,439.997,358.217L439.997,358.217z M439.997,461.987
	c27.535,0,49.861,22.325,49.861,49.859c0,27.535-22.326,49.861-49.861,49.861c-27.533,0-48.919-22.525-48.919-50.061
	C391.078,484.114,412.463,461.987,439.997,461.987z"/>
<g id="path4745" inkscape:connector-curvature="0" sodipodi:nodetypes="ccccccc" opacity="0.3">
	
		<image overflow="visible" enable-background="new    " width="145" height="194" xlink:href="A9CC5BDCE8FB23DF.png"  transform="matrix(1.3433 0 0 1.3433 -7983.3887 -7926.2969)">
	</image>
</g>
<g id="path4751" inkscape:connector-curvature="0" sodipodi:nodetypes="ccccccc">
	
		<image overflow="visible" opacity="0.39" width="145" height="194" xlink:href="A9CC5BDCE8FB23DB.png"  transform="matrix(1 0 0 1 303.5469 323.6816)">
	</image>
	<g>
		<path fill="#FFFFFF" d="M422.519,487.064l-84.828-41.628c-10.408-5.106-15.521-14.243-9.238-27.043l41.627-84.828
			c3.438-7.005,11.156-9.076,17.481-5.972c20.216,59.174,34.081,99.763,52.438,153.499
			C436.765,487.687,430.465,490.965,422.519,487.064"/>
	</g>
</g>
<g>
	
		<image overflow="visible" opacity="0.4" width="230" height="230" xlink:href="A9CC5BDCE8FB23D9.png"  transform="matrix(1 0 0 1 432.5469 114.6816)">
	</image>
	<g>
		<path fill="#FFFFFF" d="M451.274,122.984l199.27,199.088C650.544,322.072,472.002,314.286,451.274,122.984z"/>
	</g>
</g>
</svg>
