<?xml version="1.0" encoding="utf-8"?>
<!-- Generator: Adobe Illustrator 16.0.0, SVG Export Plug-In . SVG Version: 6.00 Build 0)  -->
<!DOCTYPE svg PUBLIC "-//W3C//DTD SVG 1.1//EN" "http://www.w3.org/Graphics/SVG/1.1/DTD/svg11.dtd">
<svg version="1.1" id="Layer_1" xmlns="http://www.w3.org/2000/svg" xmlns:xlink="http://www.w3.org/1999/xlink" x="0px" y="0px"
	 width="60px" height="60px" viewBox="0 0 60 60" enable-background="new 0 0 60 60" xml:space="preserve">
<g>
	<g>
		<path fill="#4D4D4D" d="M38.852,30.855c2.764,2.197,4.988,5.381,6.373,9.166c7.26-0.371,12.362-2.127,12.362-2.127
			c0-6.801-2.819-12.761-7.055-16.097c-1.861,2.251-4.677,3.686-7.826,3.686c-0.97,0-1.906-0.136-2.795-0.391
			c0.042,0.376,0.063,0.758,0.063,1.144C39.977,27.902,39.568,29.473,38.852,30.855z"/>
		<path fill="#4D4D4D" d="M21.015,30.855c-0.719-1.382-1.125-2.954-1.125-4.62c0-0.385,0.022-0.766,0.064-1.141
			c-0.849,0.23-1.739,0.354-2.662,0.354c-3.15,0-5.964-1.436-7.826-3.688c-4.233,3.336-7.054,9.298-7.054,16.099
			c0,0,4.947,1.777,12.239,2.134C16.037,36.223,18.259,33.049,21.015,30.855z"/>
	</g>
	<path fill="#4D4D4D" d="M44.812,48.797c0-6.801-2.819-12.762-7.055-16.1c-1.859,2.252-4.677,3.688-7.826,3.688
		c-3.15,0-5.964-1.438-7.826-3.688c-4.233,3.338-7.054,9.299-7.054,16.1c0,0,6.103,2.193,14.743,2.193
		C38.438,50.99,44.812,48.797,44.812,48.797z"/>
	<circle fill="#4D4D4D" cx="29.933" cy="26.237" r="8.228"/>
	<path fill="#4D4D4D" d="M42.706,7.107c-4.544,0-8.228,3.684-8.228,8.228c0,0.721,0.094,1.419,0.267,2.085
		c2.147,1.175,3.819,3.112,4.651,5.447c1.013,0.447,2.133,0.696,3.31,0.696c4.545,0,8.229-3.684,8.229-8.228
		S47.251,7.107,42.706,7.107z"/>
	<path fill="#4D4D4D" d="M25.256,17.385c0.174-0.667,0.267-1.364,0.267-2.084c0-4.544-3.684-8.228-8.229-8.228
		s-8.23,3.683-8.23,8.227c0,4.545,3.684,8.229,8.229,8.229c1.152,0,2.25-0.238,3.246-0.666
		C21.379,20.505,23.077,18.554,25.256,17.385z"/>
</g>
</svg>
