<?xml version="1.0" encoding="utf-8"?>
<!-- Generator: Adobe Illustrator 16.0.0, SVG Export Plug-In . SVG Version: 6.00 Build 0)  -->
<!DOCTYPE svg PUBLIC "-//W3C//DTD SVG 1.1//EN" "http://www.w3.org/Graphics/SVG/1.1/DTD/svg11.dtd">
<svg version="1.1" id="Layer_1" xmlns="http://www.w3.org/2000/svg" xmlns:xlink="http://www.w3.org/1999/xlink" x="0px" y="0px"
	 width="800px" height="800px" viewBox="0 0 800 800" enable-background="new 0 0 800 800" xml:space="preserve">
<path fill="none" stroke="#000000" stroke-width="13" stroke-miterlimit="10" d="M171.5,284.5c0,0,0,275.651,0,367.535
	c0,36.211,43.304,74.465,79.516,74.465c73.642,0,220.926,0,294.567,0c36.211,0,68.917-38.254,68.917-74.465
	c0-91.884,0-367.535,0-367.535H171.5z M308.5,630.418c0.75,21.122-4.008,31.082-17.588,31.082c-1.706,0-6.824,0-6.824,0
	c-13.58,0-28.088-0.54-27.588-31.082c1.076-65.7-4.497-197.281,0-262.836c1.446-21.085,18.008-18.082,31.588-18.082h2.824
	c14.97,4.837,17.588,10.232,17.588,18.082C308.5,367.582,306.167,564.75,308.5,630.418z M420.5,622.08
	c-0.316,17.608,5,41.92-23.5,40.42l-4-0.5c-28.5-0.5-24.164-9.997-24.5-31.406c-1.032-65.791-1.585-197.417,0-263.196
	c0.5-20.754,17.982-17.897,31.551-17.897h2.897c13.574,0,17.552,4.323,17.552,17.897C420.5,431.068,421.645,558.42,420.5,622.08z
	 M532.5,634.918c1.001,23.495-9.005,26.582-22.581,26.582c-0.71,0-2.838,0-2.838,0c-13.576,0-27.582-1.791-26.581-26.582
	c2.65-65.655,0-262.836,0-262.836c-3-24.122,13.005-22.582,26.581-22.582h2.838c13.576,0,23.581-1.54,22.581,22.582
	C532.5,372.082,529.703,569.269,532.5,634.918z"/>
<path fill="none" stroke="#000000" stroke-width="13" stroke-miterlimit="10" d="M574.319,196.496l-82.87-25.56
	c2.465-2.562,4.474-5.675,5.592-9.304l1.449-4.728c3.838-12.437-3.127-25.624-15.57-29.462l-91.773-28.3
	c-12.443-3.826-25.637,3.14-29.462,15.57l-1.463,4.722c-1.117,3.648-1.219,7.327-0.622,10.842l-82.871-25.547
	c-34.591-10.67-70.306,5.554-81.822,42.859L617.763,278C629.291,240.683,608.916,207.172,574.319,196.496z"/>
</svg>
