<?xml version="1.0" encoding="utf-8"?>
<!-- Generator: Adobe Illustrator 16.0.0, SVG Export Plug-In . SVG Version: 6.00 Build 0)  -->
<!DOCTYPE svg PUBLIC "-//W3C//DTD SVG 1.1//EN" "http://www.w3.org/Graphics/SVG/1.1/DTD/svg11.dtd">
<svg version="1.1" id="Layer_1" xmlns="http://www.w3.org/2000/svg" xmlns:xlink="http://www.w3.org/1999/xlink" x="0px" y="0px"
	 width="60px" height="60px" viewBox="0 0 60 60" enable-background="new 0 0 60 60" xml:space="preserve">
<path d="M30,30"/>
<circle fill="#94C655" cx="30" cy="29.999" r="30"/>
<g>
	<g>
		<path fill="#FFFFFF" d="M26.865,43.785c0.407,0.423,0.75,0.289,0.761-0.298l0.073-3.812c0.011-0.587-0.313-1.414-0.72-1.837
			L16.273,26.712c-0.407-0.423-0.395-1.103,0.029-1.51l11.125-10.706c0.423-0.407,0.779-1.221,0.791-1.809l0.074-3.812
			c0.012-0.587-0.325-0.734-0.749-0.327l-17.188,16.54c-0.423,0.407-0.436,1.087-0.029,1.51L26.865,43.785z"/>
	</g>
	<g>
		<path fill="#FFFFFF" d="M33.134,16.216c-0.407-0.423-0.749-0.289-0.761,0.298L32.3,20.327c-0.012,0.587,0.312,1.414,0.72,1.837
			l10.709,11.125c0.407,0.423,0.394,1.103-0.029,1.51L32.572,45.506c-0.423,0.407-0.778,1.221-0.79,1.808l-0.073,3.812
			c-0.012,0.587,0.326,0.734,0.749,0.327l17.188-16.539c0.423-0.407,0.437-1.087,0.029-1.51L33.134,16.216z"/>
	</g>
</g>
</svg>
