<?xml version="1.0" encoding="utf-8"?>
<!-- Generator: Adobe Illustrator 16.0.0, SVG Export Plug-In . SVG Version: 6.00 Build 0)  -->
<!DOCTYPE svg PUBLIC "-//W3C//DTD SVG 1.1//EN" "http://www.w3.org/Graphics/SVG/1.1/DTD/svg11.dtd">
<svg version="1.1" id="Layer_1" xmlns="http://www.w3.org/2000/svg" xmlns:xlink="http://www.w3.org/1999/xlink" x="0px" y="0px"
	 width="60px" height="60px" viewBox="0 0 60 60" enable-background="new 0 0 60 60" xml:space="preserve">
<circle fill="#6C1C7A" cx="30" cy="30" r="30"/>
<g>
	<g>
		<g>
			<path fill="#FFFFFF" d="M35.301,45.395c0,3.195-2.386,5.81-5.301,5.81c-2.916,0-5.301-2.614-5.301-5.81V14.605
				c0-3.195,2.385-5.81,5.301-5.81c2.915,0,5.301,2.614,5.301,5.81V45.395z"/>
		</g>
		<g>
			<path fill="#FFFFFF" d="M45.395,24.699c3.195,0,5.81,2.385,5.81,5.301c0,2.915-2.614,5.301-5.81,5.301H14.605
				c-3.195,0-5.81-2.386-5.81-5.301c0-2.916,2.614-5.301,5.81-5.301H45.395z"/>
		</g>
	</g>
</g>
</svg>
