<?xml version="1.0" encoding="utf-8"?>
<!-- Generator: Adobe Illustrator 16.0.0, SVG Export Plug-In . SVG Version: 6.00 Build 0)  -->
<!DOCTYPE svg PUBLIC "-//W3C//DTD SVG 1.1//EN" "http://www.w3.org/Graphics/SVG/1.1/DTD/svg11.dtd">
<svg version="1.1" id="Layer_1" xmlns="http://www.w3.org/2000/svg" xmlns:xlink="http://www.w3.org/1999/xlink" x="0px" y="0px"
	 width="60px" height="60px" viewBox="0 0 60 60" enable-background="new 0 0 60 60" xml:space="preserve">
<circle fill="#70B742" cx="30" cy="30" r="30"/>
<g>
	<path fill="#FFFFFF" d="M53.082,15.117c-0.554-0.619-2.201-0.15-3.659,1.04L23.756,37.111c-1.458,1.19-3.68,1.019-4.938-0.383
		l-6.857-7.643c-1.257-1.401-3.242-1.69-4.41-0.643c-1.167,1.048-1.094,3.052,0.163,4.453l6.858,7.643
		c1.257,1.401,3.412,3.6,4.787,4.886l0.39,0.363c1.375,1.286,3.589,1.248,4.919-0.084l27.003-27.04
		C53.002,17.331,53.637,15.735,53.082,15.117z"/>
</g>
</svg>
