<?xml version="1.0" encoding="utf-8"?>
<!-- Generator: Adobe Illustrator 16.0.0, SVG Export Plug-In . SVG Version: 6.00 Build 0)  -->
<!DOCTYPE svg PUBLIC "-//W3C//DTD SVG 1.1//EN" "http://www.w3.org/Graphics/SVG/1.1/DTD/svg11.dtd">
<svg version="1.1" id="Layer_1" xmlns="http://www.w3.org/2000/svg" xmlns:xlink="http://www.w3.org/1999/xlink" x="0px" y="0px"
	 width="60px" height="60px" viewBox="0 0 60 60" enable-background="new 0 0 60 60" xml:space="preserve">
<circle fill="#FF5C39" cx="30" cy="30" r="30"/>
<g>
	<g>
		<path fill="#FFFFFF" d="M15.421,31.373c0-0.792,0.647-1.438,1.438-1.438h10.978c0.791,0,1.438,0.648,1.438,1.438v17.142
			c0,0.791-0.647,1.438-1.438,1.438H16.859c-0.791,0-1.438-0.646-1.438-1.438V31.373z"/>
	</g>
	<g>
		<path fill="#FFFFFF" d="M30.728,31.373c0-0.792,0.647-1.438,1.438-1.438h10.979c0.791,0,1.438,0.648,1.438,1.438v17.142
			c0,0.791-0.646,1.438-1.438,1.438H32.165c-0.79,0-1.438-0.646-1.438-1.438V31.373z"/>
	</g>
	<g>
		<path fill="#FFFFFF" d="M13.896,23.551c0-0.791,0.647-1.438,1.438-1.438h12.466c0.791,0,1.438,0.647,1.438,1.438v3.637
			c0,0.791-0.647,1.438-1.438,1.438H15.333c-0.791,0-1.438-0.647-1.438-1.438V23.551z"/>
	</g>
	<g>
		<path fill="#FFFFFF" d="M30.764,23.551c0-0.791,0.646-1.438,1.438-1.438h12.466c0.791,0,1.438,0.647,1.438,1.438v3.637
			c0,0.791-0.646,1.438-1.438,1.438H32.201c-0.791,0-1.438-0.647-1.438-1.438V23.551z"/>
	</g>
	<path fill="#FFFFFF" d="M42.907,12.565c-1.522-2.499-4.748-3.266-7.202-1.715c-1.745,1.101-4.301,5.878-5.636,8.552
		c-1.335-2.675-3.892-7.451-5.635-8.552c-2.455-1.551-5.679-0.783-7.203,1.715c-1.523,2.499-0.768,5.781,1.686,7.332
		c1.999,1.262,8.722,1.356,11.152,1.348c2.43,0.008,9.153-0.086,11.152-1.348C43.676,18.345,44.431,15.062,42.907,12.565z
		 M20.081,18.354c-1.59-1.005-2.08-3.132-1.093-4.75c0.987-1.619,3.077-2.117,4.667-1.111c1.59,1.004,4.455,6.947,4.455,6.947
		S21.672,19.358,20.081,18.354z M40.059,18.353c-1.591,1.005-8.031,1.085-8.031,1.085s2.864-5.942,4.455-6.948
		c1.591-1.005,3.681-0.507,4.667,1.112C42.139,15.222,41.649,17.348,40.059,18.353z"/>
</g>
</svg>
