<?xml version="1.0" encoding="utf-8"?>
<!-- Generator: Adobe Illustrator 16.0.0, SVG Export Plug-In . SVG Version: 6.00 Build 0)  -->
<!DOCTYPE svg PUBLIC "-//W3C//DTD SVG 1.1//EN" "http://www.w3.org/Graphics/SVG/1.1/DTD/svg11.dtd">
<svg version="1.1" id="Layer_1" xmlns="http://www.w3.org/2000/svg" xmlns:xlink="http://www.w3.org/1999/xlink" x="0px" y="0px"
	 width="60px" height="60px" viewBox="0 0 60 60" enable-background="new 0 0 60 60" xml:space="preserve">
<g>
	<path fill="#FFFFFF" d="M58.955,32.064c0-1.728-0.344-3.142-0.762-3.142s-0.418,0,0,0s-0.223-1.016-1.424-2.258L32.1,1.173
		c-1.203-1.242-3.161-1.233-4.352,0.02L3.542,26.646c-1.191,1.252-1.88,2.277-1.531,2.277c0.349,0,0.349,0,0,0
		c-0.349,0-0.634,1.414-0.634,3.142v24.67c0,1.729,1.414,3.143,3.143,3.143h13.814c1.729,0,3.143-1.414,3.143-3.143V40.089
		c0-1.729,1.414-3.144,3.143-3.144h10.967c1.729,0,3.144,1.414,3.144,3.144v16.646c0,1.729,1.414,3.144,3.143,3.144h13.941
		c1.729,0,3.143-1.414,3.143-3.144v-24.67H58.955z"/>
</g>
</svg>
