<?xml version="1.0" encoding="utf-8"?>
<!-- Generator: Adobe Illustrator 16.0.0, SVG Export Plug-In . SVG Version: 6.00 Build 0)  -->
<!DOCTYPE svg PUBLIC "-//W3C//DTD SVG 1.1//EN" "http://www.w3.org/Graphics/SVG/1.1/DTD/svg11.dtd">
<svg version="1.1" id="Layer_1" xmlns="http://www.w3.org/2000/svg" xmlns:xlink="http://www.w3.org/1999/xlink" x="0px" y="0px"
	 width="800px" height="800px" viewBox="0 0 800 800" enable-background="new 0 0 800 800" xml:space="preserve">
<g>
	<path fill="#C976E5" d="M650.812,311.704c0,0-13.12-119.958-36.127-142.963c0,0-89.884-119.163-102.407-143.503
		c0,0-43.815-56.975-83.254,21.902c0,0-2.106,37.717-0.385,56.576c0.57,6.291-31.339-28.911-49.985-28.911
		c-21.195,6.092-42.385,27.595-32.896,57.244c0,0-4.045,69.364,83.806,130.364c0,0,20.271,37.249,16.983,54.233
		c0,0-114.488-73.4-145.157-38.898c0,0-113.399,70.107-136.405,64.639c-24.103-2.734-47.577,38.912-28.486,60.801
		c3.813,4.365,18.505,12.876,16.201,13.454c-4.929,1.233-40.844,2.658-47.97,22.697c-12.812,36.037-14.693,159.551-10.95,167.048
		c7.375,14.775,104.777,208.155,311.828,181.862c0,0,136.597,13.147,189.181-96.951c0,0,65.832-78.877,70.763-159.396
		C665.551,531.9,657.386,341.282,650.812,311.704z M324.928,625.565l-102.429-69.017c15.315-95.295-46.723-135.197-46.723-135.197
		c37.608,24.213,145.872-37.884,145.872-37.884c66.295,76.129,122.146,75.59,122.146,75.59l2.194,88.736
		C394.517,563.121,324.928,625.565,324.928,625.565z"/>
	<path fill="#A148B7" d="M134.052,364.621c0,0,27.005,59.156,180.374,0l3.832,1.919c0,0,70.956,78.132,123.54,74.846l1.996,17.672
		c0,0-51.59,4.345-122.146-75.59c0,0-116.498,83.034-187.34,16.998C134.309,400.466,124.051,384.751,134.052,364.621z"/>
	<path fill="#934D93" d="M454.943,317.519c0,0,82.683,39.432,95.83,51.486c0,0-8.063-131.788-31.762-173.087
		c-10.521-18.339-38.347-51.493-50.396-67.926c-12.049-16.433-6.747-87.054-0.174-121.626c0,0-66.643,22.479-36.344,121.626
		c7.606,24.9,29.405,65.185,54.479,88.736c0,0,20.385,21.908,23.673,111.742C510.25,328.47,471.395,316.974,454.943,317.519z"/>
	<path fill="#A148B7" d="M152.699,416.641c0,0,61.052,18.948,51.629,135.312l120.6,73.612l-100.881-76.899
		C224.047,548.666,238.81,435.281,152.699,416.641z"/>
	<path fill="#A148B7" d="M663.176,481.151c0,0-51.904,272.691-272.338,287.711c-14.321,0.976-160.296,27.269-297.059-162.477
		c0,0,58.92,127.969,192.955,172.201c28.007,9.244,102.767,12.114,112.319,12.114c139.676,0,212.077-78.268,252.985-198.949
		C664.344,555.458,665.551,521.103,663.176,481.151z"/>
</g>
<g>
	<path fill="none" d="M652.842,313.471c0,0-13.122-119.958-36.127-142.963c0,0-89.885-119.155-102.409-143.503
		c0,0-43.814-56.974-83.253,21.902c0,0-2.107,37.724-0.385,56.583c0.571,6.284-31.339-28.924-49.984-28.924
		c-21.195,6.098-42.387,27.602-32.898,57.251c0,0-4.045,69.363,83.807,130.362c0,0,20.271,37.25,16.984,54.234
		c0,0-114.488-73.401-145.158-38.899c0,0-113.398,70.109-136.403,64.64C142.91,341.419,124,383,138.526,404.954
		c3.198,4.834,16.201,13.455,16.201,13.455c1.422,4.878-40.844,2.658-47.968,22.697c-12.812,36.036-14.694,159.55-10.952,167.048
		c7.377,14.775,104.776,208.155,311.829,181.863c0,0,136.596,13.145,189.179-96.953c0,0,65.833-78.876,70.764-159.397
		C667.579,533.667,659.414,343.05,652.842,313.471z M326.955,627.334l-102.428-69.018c14.286-121.316-69.8-139.907-69.8-139.907
		c25.662,5.606,57.638,8.052,94.139-1.769c41.088-11.055,74.81-31.404,74.81-31.404C367,447,445.824,460.826,445.824,460.826
		l2.193,88.734C396.544,564.891,326.955,627.334,326.955,627.334z"/>
	<path fill="none" d="M430.775,106.312c0,0,25.555,84.91,62.374,114.502l0,0c0,0,18.851,136.352,18.851,125.197"/>
	<path fill="none" d="M448.576,318.414c43.515,24.244,59.017,25.295,59.017,25.295s7.737,4.055,43.181,25.295"/>
</g>
</svg>
