<?xml version="1.0" encoding="utf-8"?>
<!-- Generator: Adobe Illustrator 16.0.0, SVG Export Plug-In . SVG Version: 6.00 Build 0)  -->
<!DOCTYPE svg PUBLIC "-//W3C//DTD SVG 1.1//EN" "http://www.w3.org/Graphics/SVG/1.1/DTD/svg11.dtd">
<svg version="1.1" id="Layer_1" xmlns="http://www.w3.org/2000/svg" xmlns:xlink="http://www.w3.org/1999/xlink" x="0px" y="0px"
	 width="60px" height="60px" viewBox="0 0 60 60" enable-background="new 0 0 60 60" xml:space="preserve">
<path fill="#050404" d="M27.405,41.719c-13.444-4.26-21.49-9.779-22.554-6.42c-1.063,3.357,5.251,14.337,18.697,18.585
	c13.442,4.278,25.198,4.994,26.263,1.623C50.873,52.166,40.837,45.97,27.405,41.719z M35.013,53.211
	c-1.369,2.412-6.151,2.291-10.69-0.266c-4.555-2.57-7.138-6.603-5.774-9.014c1.363-2.406,6.148-2.287,10.688,0.265
	C33.794,46.768,36.376,50.804,35.013,53.211z"/>
<path fill="none" stroke="#000000" stroke-width="2.8517" stroke-miterlimit="10" d="M48.396,54.702l3.787-24.022
	c2.349-12.646-3.188-18.461-9.236-20.621l-7.762-2.7c-10.767-2.944-17.188,2.93-21.542,9.91L6.31,35.993"/>
<path fill="#050404" d="M28.309,10.388c0,0-9.434,13.119-10.19,18.293c-0.757,5.19,0.732,7.969,0.732,7.969s0.302-5.073,1.689-9.768
	C21.906,22.244,28.051,12.252,28.309,10.388z"/>
<path fill="none" stroke="#000000" stroke-width="2.7353" stroke-miterlimit="10" d="M29.733,6.217
	c0.754-2.877,5.893-5.44,10.645-4.185c4.789,1.261,6.915,6.511,6.163,9.388"/>
</svg>
