<?xml version="1.0" encoding="utf-8"?>
<!-- Generator: Adobe Illustrator 16.0.0, SVG Export Plug-In . SVG Version: 6.00 Build 0)  -->
<!DOCTYPE svg PUBLIC "-//W3C//DTD SVG 1.1//EN" "http://www.w3.org/Graphics/SVG/1.1/DTD/svg11.dtd">
<svg version="1.1" id="Layer_1" xmlns="http://www.w3.org/2000/svg" xmlns:xlink="http://www.w3.org/1999/xlink" x="0px" y="0px"
	 width="60px" height="60px" viewBox="0 0 60 60" enable-background="new 0 0 60 60" xml:space="preserve">
<path fill="#050404" d="M35.432,14.342c-5.493-6.323-15.072-6.997-21.396-1.503c-6.323,5.493-6.995,15.072-1.502,21.396
	c5.136,5.91,14.021,6.725,20.299,2.337c0.093,0.137,0.374,0.112,0.485,0.241l1.354,1.559c-0.465,0.99-0.694,2.249-0.088,2.947
	l7.787,8.965c0.915,1.053,2.728,0.728,3.569-0.004l0.354-0.309c0.843-0.73,1.521-2.569,0.605-3.623l-7.787-8.963
	c-0.607-0.7-1.887-0.647-2.931-0.325l-1.355-1.559c-0.105-0.121-0.086-0.345-0.199-0.448C40.159,29.468,40.672,20.373,35.432,14.342
	z M31.848,33.341c-5,4.342-12.573,3.812-16.917-1.188c-4.343-5-3.811-12.574,1.188-16.917c5-4.343,12.574-3.812,16.917,1.188
	C37.38,21.423,36.847,28.997,31.848,33.341z"/>
<g>
	<path fill="#050404" d="M26.708,15H26v-0.5c0-0.276-0.224-0.5-0.5-0.5S25,14.224,25,14.5v0.792V15.5v0.208
		C25,15.87,25.131,16,25.292,16h1.416C26.869,16,27,15.87,27,15.708v-0.417C27,15.13,26.869,15,26.708,15z"/>
	<path fill="#050404" d="M26.708,17h-1.416C25.131,17,25,17.13,25,17.292V17.5v0.208V18.5c0,0.276,0.224,0.5,0.5,0.5
		s0.5-0.224,0.5-0.5V18h0.708C26.869,18,27,17.87,27,17.708v-0.417C27,17.13,26.869,17,26.708,17z"/>
	<path fill="#050404" d="M23.5,14c-0.276,0-0.5,0.224-0.5,0.5V15h-0.708C22.131,15,22,15.13,22,15.292v0.417
		C22,15.87,22.131,16,22.292,16h1.416C23.869,16,24,15.87,24,15.708V15.5v-0.208V14.5C24,14.224,23.776,14,23.5,14z"/>
	<path fill="#050404" d="M23.708,17h-1.416C22.131,17,22,17.13,22,17.292v0.417C22,17.87,22.131,18,22.292,18H23v0.5
		c0,0.276,0.224,0.5,0.5,0.5s0.5-0.224,0.5-0.5v-0.792V17.5v-0.208C24,17.13,23.869,17,23.708,17z"/>
</g>
</svg>
