<?xml version="1.0" encoding="utf-8"?>
<!-- Generator: Adobe Illustrator 16.0.0, SVG Export Plug-In . SVG Version: 6.00 Build 0)  -->
<!DOCTYPE svg PUBLIC "-//W3C//DTD SVG 1.1//EN" "http://www.w3.org/Graphics/SVG/1.1/DTD/svg11.dtd">
<svg version="1.1" id="Layer_1" xmlns="http://www.w3.org/2000/svg" xmlns:xlink="http://www.w3.org/1999/xlink" x="0px" y="0px"
	 width="60px" height="60px" viewBox="0 0 60 60" enable-background="new 0 0 60 60" xml:space="preserve">
<path fill="#F4E308" d="M30,4.917c-13.807,0-25,11.193-25,25c0,13.808,11.193,25,25,25c13.807,0,25-11.192,25-25
	C55,16.11,43.807,4.917,30,4.917z M51.371,21.826c-0.671,0-1.028,0.76-1.163,1.477c-0.224,1.342-0.492,2.685-0.808,3.982
	c-0.983,3.938-3.355,5.279-7.562,5.279c-5.505,0-7.607-2.235-9.531-7.382c-0.537-1.342-0.582-2.774-2.33-2.774
	c-1.298,0-1.835,1.343-2.327,2.774c-1.477,3.804-3.357,7.337-9.712,7.337c-2.328,0-5.684-0.938-6.848-3.711
	c-0.537-1.389-1.208-4.789-1.343-5.819c-0.134-0.67-0.448-1.074-1.074-1.297C8.404,21.647,8.36,21.423,8.36,21.2
	c0-0.627,0-1.611,0.045-2.014c0.045-0.448,0.134-0.583,0.626-0.627c0.896,0,6.354-0.761,9.802-0.761
	c4.655,0,8.503,1.656,11.144,1.656c2.91,0,6.13-1.611,11.996-1.611c2.192,0,7.07,0.716,9.221,0.985
	c0.312,0.044,0.402,0.089,0.402,0.447c0.045,0.716,0.045,1.433,0.045,2.192C51.641,21.736,51.506,21.826,51.371,21.826z"/>
<path d="M29.25,21.503"/>
<path d="M19.25,26.586"/>
<g>
	<defs>
		<filter id="Adobe_OpacityMaskFilter" filterUnits="userSpaceOnUse" x="8.25" y="27.887" width="12" height="12">
			<feFlood  style="flood-color:white;flood-opacity:1" result="back"/>
			<feBlend  in="SourceGraphic" in2="back" mode="normal"/>
		</filter>
	</defs>
	<mask maskUnits="userSpaceOnUse" x="8.25" y="27.887" width="12" height="12" id="SVGID_1_">
		<g filter="url(#Adobe_OpacityMaskFilter)">
			<image overflow="visible" width="17" height="17" xlink:href="AEDDD46CBDE83FC.jpg"  transform="matrix(1 0 0 1 5.5 25.5)">
			</image>
		</g>
	</mask>
	<g mask="url(#SVGID_1_)">
		<circle fill="#FF2D0B" cx="14.25" cy="33.887" r="6"/>
	</g>
</g>
<g>
	<defs>
		<filter id="Adobe_OpacityMaskFilter_1_" filterUnits="userSpaceOnUse" x="40.25" y="27.887" width="12" height="12">
			<feFlood  style="flood-color:white;flood-opacity:1" result="back"/>
			<feBlend  in="SourceGraphic" in2="back" mode="normal"/>
		</filter>
	</defs>
	<mask maskUnits="userSpaceOnUse" x="40.25" y="27.887" width="12" height="12" id="SVGID_2_">
		<g filter="url(#Adobe_OpacityMaskFilter_1_)">
			<image overflow="visible" width="17" height="17" xlink:href="AEDDD46CBDE83FB.jpg"  transform="matrix(1 0 0 1 37.5 25.5)">
			</image>
		</g>
	</mask>
	<g mask="url(#SVGID_2_)">
		<circle fill="#FF2D0B" cx="46.25" cy="33.887" r="6"/>
	</g>
</g>
<path d="M52.223,19.009c0-0.402-0.091-0.45-0.414-0.502c-2.213-0.299-7.229-1.102-9.486-1.102c-6.035,0-9.352,1.805-12.344,1.805
	c-2.716,0-6.678-1.855-11.467-1.855c-3.547,0-9.165,0.853-10.085,0.853c-0.507,0.049-0.599,0.2-0.646,0.7
	c-0.046,0.451-0.046,1.555-0.046,2.255c0,0.25,0.046,0.5,0.323,0.551c0.644,0.25,0.967,0.701,1.105,1.452
	c0.138,1.153,0.83,4.959,1.382,6.514c1.198,3.107,4.651,4.158,7.046,4.158c6.539,0,8.474-3.959,9.993-8.216
	c0.508-1.604,1.059-3.107,2.395-3.107c1.797,0,1.845,1.605,2.396,3.107c1.979,5.761,4.144,8.265,9.808,8.265
	c1.795,0,3.248-0.277,4.428-0.896c0.074-0.021,0.127-0.043,0.127-0.043c0.031-0.021,0.057-0.054,0.088-0.078
	c1.541-0.894,2.574-2.424,3.142-4.894c0.323-1.452,0.601-2.955,0.83-4.458c0.14-0.803,0.506-1.655,1.197-1.655
	c0.14,0,0.274-0.099,0.274-0.4C52.268,20.611,52.268,19.811,52.223,19.009z"/>
<path d="M38.705,41.739c0.337,0.864-0.23,2.952-2.592,3.874c-2.357,0.92-4.24-0.086-4.577-0.95
	c-0.337-0.865,0.998-1.265,3.356-2.185C37.252,41.561,38.367,40.874,38.705,41.739z"/>
<g>
	<path fill="#FFFFFF" d="M48.325,20.603H47.9v-0.3c0-0.166-0.135-0.3-0.301-0.3c-0.165,0-0.3,0.134-0.3,0.3v0.476v0.125v0.125
		c0,0.097,0.079,0.175,0.176,0.175h0.85c0.097,0,0.175-0.078,0.175-0.175v-0.25C48.5,20.681,48.422,20.603,48.325,20.603z"/>
	<path fill="#FFFFFF" d="M48.325,21.803h-0.85c-0.097,0-0.176,0.078-0.176,0.175v0.125v0.125v0.476c0,0.166,0.135,0.3,0.3,0.3
		c0.166,0,0.301-0.134,0.301-0.3v-0.3h0.425c0.097,0,0.175-0.078,0.175-0.175v-0.25C48.5,21.881,48.422,21.803,48.325,21.803z"/>
	<path fill="#FFFFFF" d="M46.4,20.003c-0.166,0-0.301,0.134-0.301,0.3v0.3h-0.425c-0.097,0-0.175,0.078-0.175,0.175v0.25
		c0,0.097,0.078,0.175,0.175,0.175h0.85c0.097,0,0.176-0.078,0.176-0.175v-0.125v-0.125v-0.476
		C46.7,20.137,46.565,20.003,46.4,20.003z"/>
	<path fill="#FFFFFF" d="M46.524,21.803h-0.85c-0.097,0-0.175,0.078-0.175,0.175v0.25c0,0.097,0.078,0.174,0.175,0.174H46.1v0.3
		c0,0.166,0.135,0.3,0.301,0.3c0.165,0,0.3-0.134,0.3-0.3v-0.476v-0.125v-0.125C46.7,21.881,46.621,21.803,46.524,21.803z"/>
</g>
</svg>
