<?xml version="1.0" encoding="utf-8"?>
<!-- Generator: Adobe Illustrator 16.0.0, SVG Export Plug-In . SVG Version: 6.00 Build 0)  -->
<!DOCTYPE svg PUBLIC "-//W3C//DTD SVG 1.1//EN" "http://www.w3.org/Graphics/SVG/1.1/DTD/svg11.dtd">
<svg version="1.1" id="Layer_1" xmlns="http://www.w3.org/2000/svg" xmlns:xlink="http://www.w3.org/1999/xlink" x="0px" y="0px"
	 width="800px" height="800px" viewBox="0 0 800 800" enable-background="new 0 0 800 800" xml:space="preserve">
<g>
	<path fill="none" stroke="#000000" stroke-width="17" stroke-miterlimit="10" d="M652.842,313.471
		c0,0-13.122-119.958-36.127-142.963c0,0-89.885-119.155-102.409-143.503c0,0-43.813-56.974-83.253,21.902
		c0,0-6.446,36.308-4.725,55.168c0.571,6.284-26.999-27.509-45.646-27.509c-21.194,6.098-32.16,27.509-32.897,57.251
		c0,0-4.045,69.363,83.807,130.362c0,0,20.271,37.25,16.984,54.234c0,0-114.488-73.401-145.158-38.899
		c0,0-113.398,70.109-136.403,64.64C142.91,341.419,124,383,138.526,404.954c3.198,4.834,16.201,13.455,16.201,13.455
		c1.422,4.878-40.844,2.658-47.968,22.697c-12.812,36.035-14.694,159.55-10.952,167.048
		c7.377,14.774,104.776,208.154,311.829,181.862c0,0,118.864,2.453,197.18-96.952c0,0,57.833-78.877,62.764-159.397
		C667.579,533.667,659.414,343.05,652.842,313.471z M326.955,627.334l-102.428-69.018c14.286-121.316-69.8-139.907-69.8-139.907
		c25.662,5.605,57.638,8.052,94.139-1.77c41.088-11.055,74.81-31.404,74.81-31.404C367,447,445.824,460.826,445.824,460.826
		l2.192,88.733C396.544,564.891,326.955,627.334,326.955,627.334z"/>
	<path fill="none" stroke="#000000" stroke-width="17" stroke-miterlimit="10" d="M426.328,104.075
		c0,0,11.672,70.925,60.249,112.653l6.572,4.086c0,0,18.851,136.352,18.851,125.197"/>
	<path fill="none" stroke="#000000" stroke-width="17" stroke-miterlimit="10" d="M443.028,314.981
		c43.515,24.244,64.564,28.728,64.564,28.728c8.267,4.333,19.802,11.293,43.182,25.295"/>
</g>
</svg>
